<mxfile host="app.diagrams.net" modified="2020-08-27T09:18:57.756Z" agent="5.0 (Linux; Android 10; Redmi Note 9S) AppleWebKit/537.36 (KHTML, like Gecko) Chrome/84.0.4147.125 Mobile Safari/537.36" etag="r9NG87FurZNt3gq3QZZS" version="13.6.5" type="github">
  <diagram id="mLQhWHwgsynGwpJYqZG6" name="Page-1">
    <mxGraphModel dx="422" dy="845" grid="0" gridSize="10" guides="1" tooltips="1" connect="1" arrows="1" fold="1" page="1" pageScale="1" pageWidth="827" pageHeight="1169" math="0" shadow="0">
      <root>
        <mxCell id="0" />
        <mxCell id="1" parent="0" />
        <mxCell id="gZWs7qOVt0kRaDehl1xJ-9" value="" style="shape=image;html=1;verticalAlign=top;verticalLabelPosition=bottom;labelBackgroundColor=#ffffff;imageAspect=0;aspect=fixed;image=https://cdn2.iconfinder.com/data/icons/seo-flat-6/128/12_SEO_Benchmark-128.png" parent="1" vertex="1">
          <mxGeometry x="200.5" y="230" width="35" height="35" as="geometry" />
        </mxCell>
        <mxCell id="gZWs7qOVt0kRaDehl1xJ-11" value="" style="group;fillColor=#FCFCFC;strokeColor=none;fontColor=#333333;" parent="1" vertex="1" connectable="0">
          <mxGeometry x="172" y="359" width="92" height="15" as="geometry" />
        </mxCell>
        <mxCell id="gZWs7qOVt0kRaDehl1xJ-3" value="" style="rounded=0;whiteSpace=wrap;html=1;opacity=60;fillColor=#FFFFFF;" parent="gZWs7qOVt0kRaDehl1xJ-11" vertex="1">
          <mxGeometry width="92" height="12" as="geometry" />
        </mxCell>
        <mxCell id="gZWs7qOVt0kRaDehl1xJ-4" value="" style="shape=image;html=1;verticalAlign=top;verticalLabelPosition=bottom;labelBackgroundColor=#ffffff;imageAspect=0;aspect=fixed;image=https://cdn1.iconfinder.com/data/icons/hawcons/32/700313-icon-70-thermometer-three-quarters-128.png" parent="gZWs7qOVt0kRaDehl1xJ-11" vertex="1">
          <mxGeometry x="25" y="2" width="8" height="8" as="geometry" />
        </mxCell>
        <mxCell id="Z1L25hXeb09kKm2ScyXq-1" value="" style="shape=actor;whiteSpace=wrap;html=1;" vertex="1" parent="gZWs7qOVt0kRaDehl1xJ-11">
          <mxGeometry x="62" y="1.5" width="7" height="7.5" as="geometry" />
        </mxCell>
        <mxCell id="gZWs7qOVt0kRaDehl1xJ-16" value="" style="group" parent="1" vertex="1" connectable="0">
          <mxGeometry x="172" y="300" width="92" height="14" as="geometry" />
        </mxCell>
        <mxCell id="gZWs7qOVt0kRaDehl1xJ-10" value="&lt;font style=&quot;font-size: 9px ; line-height: 100%&quot;&gt;38°C&lt;/font&gt;" style="rounded=0;whiteSpace=wrap;html=1;opacity=40;" parent="gZWs7qOVt0kRaDehl1xJ-16" vertex="1">
          <mxGeometry width="92" height="14" as="geometry" />
        </mxCell>
        <mxCell id="gZWs7qOVt0kRaDehl1xJ-13" value="&lt;font style=&quot;font-size: 7px&quot;&gt;25 JUN&lt;/font&gt;" style="text;html=1;strokeColor=none;fillColor=none;align=center;verticalAlign=middle;whiteSpace=wrap;rounded=0;opacity=40;" parent="gZWs7qOVt0kRaDehl1xJ-16" vertex="1">
          <mxGeometry y="1.4736842105263157" width="29.4" height="8.842105263157894" as="geometry" />
        </mxCell>
        <mxCell id="gZWs7qOVt0kRaDehl1xJ-14" value="" style="ellipse;whiteSpace=wrap;html=1;aspect=fixed;strokeColor=#b85450;opacity=40;fillColor=#f8cecc;" parent="gZWs7qOVt0kRaDehl1xJ-16" vertex="1">
          <mxGeometry x="76" y="3.6842105263157894" width="6.63157894736842" height="6.63157894736842" as="geometry" />
        </mxCell>
        <mxCell id="gZWs7qOVt0kRaDehl1xJ-17" value="" style="group" parent="1" vertex="1" connectable="0">
          <mxGeometry x="172" y="315" width="96" height="74" as="geometry" />
        </mxCell>
        <mxCell id="gZWs7qOVt0kRaDehl1xJ-18" value="&lt;font style=&quot;font-size: 9px ; line-height: 100%&quot;&gt;36°C&lt;/font&gt;" style="rounded=0;whiteSpace=wrap;html=1;opacity=40;" parent="gZWs7qOVt0kRaDehl1xJ-17" vertex="1">
          <mxGeometry width="92" height="14" as="geometry" />
        </mxCell>
        <mxCell id="gZWs7qOVt0kRaDehl1xJ-19" value="&lt;font style=&quot;font-size: 7px&quot;&gt;25 JUN&lt;/font&gt;" style="text;html=1;strokeColor=none;fillColor=none;align=center;verticalAlign=middle;whiteSpace=wrap;rounded=0;opacity=40;" parent="gZWs7qOVt0kRaDehl1xJ-17" vertex="1">
          <mxGeometry y="1.4736842105263157" width="29.4" height="8.842105263157894" as="geometry" />
        </mxCell>
        <mxCell id="gZWs7qOVt0kRaDehl1xJ-20" value="" style="ellipse;whiteSpace=wrap;html=1;aspect=fixed;strokeColor=#82b366;opacity=40;fillColor=#d5e8d4;" parent="gZWs7qOVt0kRaDehl1xJ-17" vertex="1">
          <mxGeometry x="76" y="3.6842105263157894" width="6.63157894736842" height="6.63157894736842" as="geometry" />
        </mxCell>
        <mxCell id="gZWs7qOVt0kRaDehl1xJ-1" value="" style="verticalLabelPosition=bottom;verticalAlign=top;html=1;shadow=0;dashed=0;strokeWidth=1;shape=mxgraph.android.phone2;strokeColor=#c0c0c0;" parent="gZWs7qOVt0kRaDehl1xJ-17" vertex="1">
          <mxGeometry x="-4" y="-121" width="100" height="195" as="geometry" />
        </mxCell>
        <mxCell id="gZWs7qOVt0kRaDehl1xJ-21" value="" style="group" parent="1" vertex="1" connectable="0">
          <mxGeometry x="172" y="328" width="92" height="14" as="geometry" />
        </mxCell>
        <mxCell id="gZWs7qOVt0kRaDehl1xJ-22" value="&lt;font style=&quot;font-size: 9px ; line-height: 100%&quot;&gt;34°C&lt;/font&gt;" style="rounded=0;whiteSpace=wrap;html=1;opacity=40;" parent="gZWs7qOVt0kRaDehl1xJ-21" vertex="1">
          <mxGeometry width="92" height="14" as="geometry" />
        </mxCell>
        <mxCell id="gZWs7qOVt0kRaDehl1xJ-23" value="&lt;font style=&quot;font-size: 7px&quot;&gt;25 JUN&lt;/font&gt;" style="text;html=1;strokeColor=none;fillColor=none;align=center;verticalAlign=middle;whiteSpace=wrap;rounded=0;opacity=40;" parent="gZWs7qOVt0kRaDehl1xJ-21" vertex="1">
          <mxGeometry y="1.4736842105263157" width="29.4" height="8.842105263157894" as="geometry" />
        </mxCell>
        <mxCell id="gZWs7qOVt0kRaDehl1xJ-24" value="" style="ellipse;whiteSpace=wrap;html=1;aspect=fixed;strokeColor=#6c8ebf;opacity=40;fillColor=#dae8fc;" parent="gZWs7qOVt0kRaDehl1xJ-21" vertex="1">
          <mxGeometry x="76" y="3.6842105263157894" width="6.63157894736842" height="6.63157894736842" as="geometry" />
        </mxCell>
        <mxCell id="gZWs7qOVt0kRaDehl1xJ-29" value="" style="shape=image;html=1;verticalAlign=top;verticalLabelPosition=bottom;labelBackgroundColor=#ffffff;imageAspect=0;aspect=fixed;image=https://cdn4.iconfinder.com/data/icons/evil-icons-user-interface/64/plus-128.png;strokeColor=#969696;opacity=90;" parent="1" vertex="1">
          <mxGeometry x="210.5" y="282" width="15" height="15" as="geometry" />
        </mxCell>
        <mxCell id="gZWs7qOVt0kRaDehl1xJ-35" value="" style="endArrow=classic;html=1;exitX=0.989;exitY=0.258;exitDx=0;exitDy=0;exitPerimeter=0;" parent="1" source="gZWs7qOVt0kRaDehl1xJ-1" edge="1">
          <mxGeometry width="50" height="50" relative="1" as="geometry">
            <mxPoint x="277" y="247" as="sourcePoint" />
            <mxPoint x="331" y="218" as="targetPoint" />
          </mxGeometry>
        </mxCell>
        <mxCell id="gZWs7qOVt0kRaDehl1xJ-41" value="" style="endArrow=classic;html=1;" parent="1" edge="1">
          <mxGeometry width="50" height="50" relative="1" as="geometry">
            <mxPoint x="353" y="232" as="sourcePoint" />
            <mxPoint x="479" y="232" as="targetPoint" />
          </mxGeometry>
        </mxCell>
        <mxCell id="gZWs7qOVt0kRaDehl1xJ-42" value="Time (days)" style="text;html=1;strokeColor=none;fillColor=none;align=center;verticalAlign=middle;whiteSpace=wrap;rounded=0;opacity=60;" parent="1" vertex="1">
          <mxGeometry x="366" y="229" width="94" height="20" as="geometry" />
        </mxCell>
        <mxCell id="gZWs7qOVt0kRaDehl1xJ-43" value="" style="group" parent="1" vertex="1" connectable="0">
          <mxGeometry x="333" y="143" width="20" height="72" as="geometry" />
        </mxCell>
        <mxCell id="gZWs7qOVt0kRaDehl1xJ-39" value="Temperature" style="text;html=1;strokeColor=none;fillColor=none;align=center;verticalAlign=middle;whiteSpace=wrap;rounded=0;opacity=60;rotation=-90;" parent="gZWs7qOVt0kRaDehl1xJ-43" vertex="1">
          <mxGeometry x="-10" y="42" width="40" height="20" as="geometry" />
        </mxCell>
        <mxCell id="gZWs7qOVt0kRaDehl1xJ-40" value="" style="endArrow=classic;html=1;" parent="gZWs7qOVt0kRaDehl1xJ-43" edge="1">
          <mxGeometry width="50" height="50" relative="1" as="geometry">
            <mxPoint x="12" y="15" as="sourcePoint" />
            <mxPoint x="12" as="targetPoint" />
          </mxGeometry>
        </mxCell>
        <mxCell id="gZWs7qOVt0kRaDehl1xJ-44" value="" style="endArrow=none;dashed=1;html=1;" parent="1" source="gZWs7qOVt0kRaDehl1xJ-51" edge="1">
          <mxGeometry width="50" height="50" relative="1" as="geometry">
            <mxPoint x="366" y="232" as="sourcePoint" />
            <mxPoint x="366" y="198" as="targetPoint" />
          </mxGeometry>
        </mxCell>
        <mxCell id="gZWs7qOVt0kRaDehl1xJ-45" value="" style="endArrow=none;dashed=1;html=1;" parent="1" source="gZWs7qOVt0kRaDehl1xJ-60" edge="1">
          <mxGeometry width="50" height="50" relative="1" as="geometry">
            <mxPoint x="380.6067971810361" y="175.67960845689151" as="sourcePoint" />
            <mxPoint x="380" y="178" as="targetPoint" />
          </mxGeometry>
        </mxCell>
        <mxCell id="gZWs7qOVt0kRaDehl1xJ-47" value="" style="endArrow=none;dashed=1;html=1;" parent="1" source="gZWs7qOVt0kRaDehl1xJ-62" edge="1">
          <mxGeometry width="50" height="50" relative="1" as="geometry">
            <mxPoint x="410.0000000000001" y="232" as="sourcePoint" />
            <mxPoint x="410" y="208" as="targetPoint" />
          </mxGeometry>
        </mxCell>
        <mxCell id="gZWs7qOVt0kRaDehl1xJ-48" value="" style="endArrow=none;dashed=1;html=1;" parent="1" source="gZWs7qOVt0kRaDehl1xJ-64" edge="1">
          <mxGeometry width="50" height="50" relative="1" as="geometry">
            <mxPoint x="424.0000000000001" y="232" as="sourcePoint" />
            <mxPoint x="424" y="193" as="targetPoint" />
          </mxGeometry>
        </mxCell>
        <mxCell id="gZWs7qOVt0kRaDehl1xJ-49" value="" style="endArrow=none;dashed=1;html=1;" parent="1" source="gZWs7qOVt0kRaDehl1xJ-66" edge="1">
          <mxGeometry width="50" height="50" relative="1" as="geometry">
            <mxPoint x="439.0000000000001" y="232" as="sourcePoint" />
            <mxPoint x="439" y="193" as="targetPoint" />
            <Array as="points" />
          </mxGeometry>
        </mxCell>
        <mxCell id="gZWs7qOVt0kRaDehl1xJ-50" value="" style="endArrow=none;dashed=1;html=1;" parent="1" edge="1">
          <mxGeometry width="50" height="50" relative="1" as="geometry">
            <mxPoint x="453.0000000000001" y="232" as="sourcePoint" />
            <mxPoint x="453" y="193" as="targetPoint" />
            <Array as="points">
              <mxPoint x="453" y="206" />
            </Array>
          </mxGeometry>
        </mxCell>
        <mxCell id="gZWs7qOVt0kRaDehl1xJ-51" value="" style="ellipse;whiteSpace=wrap;html=1;aspect=fixed;strokeColor=#82b366;fillColor=#d5e8d4;opacity=60;" parent="1" vertex="1">
          <mxGeometry x="363" y="193" width="7" height="7" as="geometry" />
        </mxCell>
        <mxCell id="gZWs7qOVt0kRaDehl1xJ-52" value="" style="endArrow=none;dashed=1;html=1;" parent="1" target="gZWs7qOVt0kRaDehl1xJ-51" edge="1">
          <mxGeometry width="50" height="50" relative="1" as="geometry">
            <mxPoint x="366" y="232" as="sourcePoint" />
            <mxPoint x="366" y="198" as="targetPoint" />
          </mxGeometry>
        </mxCell>
        <mxCell id="gZWs7qOVt0kRaDehl1xJ-54" value="" style="endArrow=none;dashed=1;html=1;" parent="1" edge="1">
          <mxGeometry width="50" height="50" relative="1" as="geometry">
            <mxPoint x="380.0000000000001" y="232" as="sourcePoint" />
            <mxPoint x="379.51842079648065" y="182.49995133132" as="targetPoint" />
          </mxGeometry>
        </mxCell>
        <mxCell id="gZWs7qOVt0kRaDehl1xJ-56" value="" style="endArrow=none;dashed=1;html=1;" parent="1" source="gZWs7qOVt0kRaDehl1xJ-58" edge="1">
          <mxGeometry width="50" height="50" relative="1" as="geometry">
            <mxPoint x="396.0000000000001" y="232" as="sourcePoint" />
            <mxPoint x="396.48464926978977" y="171.9999664879029" as="targetPoint" />
          </mxGeometry>
        </mxCell>
        <mxCell id="gZWs7qOVt0kRaDehl1xJ-58" value="" style="ellipse;whiteSpace=wrap;html=1;aspect=fixed;strokeColor=#b85450;fillColor=#f8cecc;opacity=60;" parent="1" vertex="1">
          <mxGeometry x="393" y="168.5" width="7" height="7" as="geometry" />
        </mxCell>
        <mxCell id="gZWs7qOVt0kRaDehl1xJ-59" value="" style="endArrow=none;dashed=1;html=1;" parent="1" target="gZWs7qOVt0kRaDehl1xJ-58" edge="1">
          <mxGeometry width="50" height="50" relative="1" as="geometry">
            <mxPoint x="396.0000000000001" y="232" as="sourcePoint" />
            <mxPoint x="396.48464926978977" y="171.9999664879029" as="targetPoint" />
          </mxGeometry>
        </mxCell>
        <mxCell id="gZWs7qOVt0kRaDehl1xJ-60" value="" style="ellipse;whiteSpace=wrap;html=1;aspect=fixed;strokeColor=#d79b00;fillColor=#ffe6cc;opacity=60;" parent="1" vertex="1">
          <mxGeometry x="377" y="172" width="7" height="7" as="geometry" />
        </mxCell>
        <mxCell id="gZWs7qOVt0kRaDehl1xJ-61" value="" style="endArrow=none;dashed=1;html=1;" parent="1" target="gZWs7qOVt0kRaDehl1xJ-60" edge="1">
          <mxGeometry width="50" height="50" relative="1" as="geometry">
            <mxPoint x="380.6067971810361" y="175.67960845689151" as="sourcePoint" />
            <mxPoint x="380.0000000000001" y="178" as="targetPoint" />
          </mxGeometry>
        </mxCell>
        <mxCell id="gZWs7qOVt0kRaDehl1xJ-62" value="" style="ellipse;whiteSpace=wrap;html=1;aspect=fixed;strokeColor=#6c8ebf;fillColor=#dae8fc;opacity=60;" parent="1" vertex="1">
          <mxGeometry x="407" y="206" width="7" height="7" as="geometry" />
        </mxCell>
        <mxCell id="gZWs7qOVt0kRaDehl1xJ-63" value="" style="endArrow=none;dashed=1;html=1;" parent="1" target="gZWs7qOVt0kRaDehl1xJ-62" edge="1">
          <mxGeometry width="50" height="50" relative="1" as="geometry">
            <mxPoint x="410.0000000000001" y="232" as="sourcePoint" />
            <mxPoint x="410.0000000000001" y="208" as="targetPoint" />
          </mxGeometry>
        </mxCell>
        <mxCell id="gZWs7qOVt0kRaDehl1xJ-64" value="" style="ellipse;whiteSpace=wrap;html=1;aspect=fixed;strokeColor=#82b366;fillColor=#d5e8d4;opacity=60;" parent="1" vertex="1">
          <mxGeometry x="420" y="189" width="7" height="7" as="geometry" />
        </mxCell>
        <mxCell id="gZWs7qOVt0kRaDehl1xJ-65" value="" style="endArrow=none;dashed=1;html=1;" parent="1" target="gZWs7qOVt0kRaDehl1xJ-64" edge="1">
          <mxGeometry width="50" height="50" relative="1" as="geometry">
            <mxPoint x="424.0000000000001" y="232" as="sourcePoint" />
            <mxPoint x="424" y="193" as="targetPoint" />
          </mxGeometry>
        </mxCell>
        <mxCell id="gZWs7qOVt0kRaDehl1xJ-66" value="" style="ellipse;whiteSpace=wrap;html=1;aspect=fixed;strokeColor=#82b366;fillColor=#d5e8d4;opacity=60;" parent="1" vertex="1">
          <mxGeometry x="436" y="189" width="7" height="7" as="geometry" />
        </mxCell>
        <mxCell id="gZWs7qOVt0kRaDehl1xJ-67" value="" style="endArrow=none;dashed=1;html=1;" parent="1" target="gZWs7qOVt0kRaDehl1xJ-66" edge="1">
          <mxGeometry width="50" height="50" relative="1" as="geometry">
            <mxPoint x="439.0000000000001" y="232" as="sourcePoint" />
            <mxPoint x="439" y="193" as="targetPoint" />
            <Array as="points">
              <mxPoint x="439" y="206" />
            </Array>
          </mxGeometry>
        </mxCell>
        <mxCell id="gZWs7qOVt0kRaDehl1xJ-68" value="" style="ellipse;whiteSpace=wrap;html=1;aspect=fixed;strokeColor=#82b366;fillColor=#d5e8d4;opacity=60;" parent="1" vertex="1">
          <mxGeometry x="449" y="189" width="7" height="7" as="geometry" />
        </mxCell>
        <mxCell id="gZWs7qOVt0kRaDehl1xJ-69" value="OR" style="text;html=1;strokeColor=none;fillColor=none;align=center;verticalAlign=middle;whiteSpace=wrap;rounded=0;opacity=60;" parent="1" vertex="1">
          <mxGeometry x="489" y="186.5" width="40" height="20" as="geometry" />
        </mxCell>
        <mxCell id="gZWs7qOVt0kRaDehl1xJ-70" value="&quot;Nothing to show here yet&quot;" style="text;html=1;strokeColor=none;fillColor=none;align=center;verticalAlign=middle;whiteSpace=wrap;rounded=0;opacity=60;" parent="1" vertex="1">
          <mxGeometry x="542" y="191" width="121" height="20" as="geometry" />
        </mxCell>
        <mxCell id="gZWs7qOVt0kRaDehl1xJ-71" value="" style="endArrow=classic;html=1;" parent="1" edge="1">
          <mxGeometry width="50" height="50" relative="1" as="geometry">
            <mxPoint x="269" y="364" as="sourcePoint" />
            <mxPoint x="356" y="364" as="targetPoint" />
          </mxGeometry>
        </mxCell>
        <mxCell id="gZWs7qOVt0kRaDehl1xJ-76" value="&lt;font style=&quot;font-size: 6px&quot;&gt;swipe to change month/week&lt;/font&gt;" style="text;html=1;strokeColor=none;fillColor=none;align=center;verticalAlign=middle;whiteSpace=wrap;rounded=0;opacity=60;" parent="1" vertex="1">
          <mxGeometry x="169.73000000000002" y="265" width="96.55" height="12" as="geometry" />
        </mxCell>
        <mxCell id="gZWs7qOVt0kRaDehl1xJ-77" value="" style="triangle;whiteSpace=wrap;html=1;strokeColor=#050505;fillColor=#FFFFFF;opacity=60;" parent="1" vertex="1">
          <mxGeometry x="255" y="249" width="6" height="8" as="geometry" />
        </mxCell>
        <mxCell id="gZWs7qOVt0kRaDehl1xJ-78" value="" style="triangle;whiteSpace=wrap;html=1;strokeColor=#050505;fillColor=#FFFFFF;opacity=60;rotation=-180;" parent="1" vertex="1">
          <mxGeometry x="175" y="249" width="6" height="8" as="geometry" />
        </mxCell>
        <mxCell id="gZWs7qOVt0kRaDehl1xJ-81" value="" style="rounded=0;whiteSpace=wrap;html=1;strokeColor=#050505;fillColor=#FFFFFF;opacity=60;" parent="1" vertex="1">
          <mxGeometry x="333" y="136" width="160" height="116" as="geometry" />
        </mxCell>
        <mxCell id="gZWs7qOVt0kRaDehl1xJ-82" value="" style="rounded=0;whiteSpace=wrap;html=1;strokeColor=#050505;fillColor=#FFFFFF;opacity=60;" parent="1" vertex="1">
          <mxGeometry x="537" y="183" width="132" height="37" as="geometry" />
        </mxCell>
        <mxCell id="gZWs7qOVt0kRaDehl1xJ-83" value="..." style="text;html=1;strokeColor=none;fillColor=none;align=center;verticalAlign=middle;whiteSpace=wrap;rounded=0;opacity=60;" parent="1" vertex="1">
          <mxGeometry x="198" y="336" width="40" height="20" as="geometry" />
        </mxCell>
        <mxCell id="gZWs7qOVt0kRaDehl1xJ-85" value="" style="endArrow=none;dashed=1;html=1;" parent="1" edge="1">
          <mxGeometry width="50" height="50" relative="1" as="geometry">
            <mxPoint x="125" y="364.8" as="sourcePoint" />
            <mxPoint x="175" y="364.8" as="targetPoint" />
          </mxGeometry>
        </mxCell>
        <mxCell id="gZWs7qOVt0kRaDehl1xJ-88" value="BottomTagNavigator" style="text;html=1;strokeColor=none;fillColor=none;align=center;verticalAlign=middle;whiteSpace=wrap;rounded=0;opacity=60;" parent="1" vertex="1">
          <mxGeometry x="9" y="355" width="118" height="16" as="geometry" />
        </mxCell>
        <mxCell id="Z1L25hXeb09kKm2ScyXq-2" value="Navigator for screens ( profilo, temperature, heathbeat)" style="text;html=1;align=center;verticalAlign=middle;resizable=0;points=[];autosize=1;" vertex="1" parent="1">
          <mxGeometry x="368" y="356" width="301" height="18" as="geometry" />
        </mxCell>
        <mxCell id="gZWs7qOVt0kRaDehl1xJ-8" value="" style="rounded=0;whiteSpace=wrap;html=1;opacity=40;" parent="1" vertex="1">
          <mxGeometry x="172.01" y="211" width="92" height="69.5" as="geometry" />
        </mxCell>
      </root>
    </mxGraphModel>
  </diagram>
</mxfile>
